<mxfile host="Electron" modified="2024-05-11T19:13:12.176Z" agent="Mozilla/5.0 (Windows NT 10.0; Win64; x64) AppleWebKit/537.36 (KHTML, like Gecko) draw.io/24.2.5 Chrome/120.0.6099.109 Electron/28.1.0 Safari/537.36" etag="DkzCr7IHPJIyhzaNeEEr" version="24.2.5" type="device" pages="2">
  <diagram name="CCT Lab X Cursos" id="6eQfBfxwiZPJYqA93cgq">
    <mxGraphModel dx="250" dy="221" grid="1" gridSize="10" guides="1" tooltips="1" connect="1" arrows="1" fold="1" page="1" pageScale="1" pageWidth="800" pageHeight="400" math="0" shadow="0">
      <root>
        <mxCell id="0" />
        <mxCell id="1" parent="0" />
        <mxCell id="gS1Dbe_fFtQ_VaBTwPRr-32" value="CCT - Centro de Ciência e Tecnologia" style="whiteSpace=wrap;strokeWidth=2;verticalAlign=top;fillColor=none;fontStyle=1;fontSize=14;" parent="1" vertex="1">
          <mxGeometry x="840" y="440" width="740" height="500" as="geometry" />
        </mxCell>
        <mxCell id="gS1Dbe_fFtQ_VaBTwPRr-52" value="Laboratórios" style="whiteSpace=wrap;strokeWidth=2;verticalAlign=top;fillColor=none;fontStyle=1" parent="1" vertex="1">
          <mxGeometry x="860" y="481.5" width="360" height="438.5" as="geometry" />
        </mxCell>
        <mxCell id="gS1Dbe_fFtQ_VaBTwPRr-34" value="Cursos" style="whiteSpace=wrap;strokeWidth=2;verticalAlign=top;fillColor=none;fontStyle=1" parent="1" vertex="1">
          <mxGeometry x="1240" y="481.5" width="320" height="438.5" as="geometry" />
        </mxCell>
        <mxCell id="gS1Dbe_fFtQ_VaBTwPRr-36" value="Química (Licenciatura)" style="whiteSpace=wrap;strokeWidth=2;align=left;" parent="1" vertex="1">
          <mxGeometry x="1259.75" y="760" width="160" height="20" as="geometry" />
        </mxCell>
        <mxCell id="gS1Dbe_fFtQ_VaBTwPRr-53" value="" style="curved=1;startArrow=none;endArrow=block;rounded=0;" parent="1" source="gS1Dbe_fFtQ_VaBTwPRr-35" target="gS1Dbe_fFtQ_VaBTwPRr-36" edge="1">
          <mxGeometry relative="1" as="geometry">
            <Array as="points" />
          </mxGeometry>
        </mxCell>
        <mxCell id="gS1Dbe_fFtQ_VaBTwPRr-37" value="Química (Licenciatura - EaD)" style="whiteSpace=wrap;strokeWidth=2;align=left;" parent="1" vertex="1">
          <mxGeometry x="1259.75" y="800" width="201.25" height="20" as="geometry" />
        </mxCell>
        <mxCell id="gS1Dbe_fFtQ_VaBTwPRr-54" value="" style="curved=1;startArrow=none;endArrow=block;rounded=0;" parent="1" source="gS1Dbe_fFtQ_VaBTwPRr-35" target="gS1Dbe_fFtQ_VaBTwPRr-37" edge="1">
          <mxGeometry relative="1" as="geometry">
            <Array as="points" />
          </mxGeometry>
        </mxCell>
        <mxCell id="gS1Dbe_fFtQ_VaBTwPRr-35" value="Laboratório de Ciências Químicas" style="whiteSpace=wrap;strokeWidth=2;align=right;" parent="1" vertex="1">
          <mxGeometry x="1000.75" y="780" width="199" height="20" as="geometry" />
        </mxCell>
        <mxCell id="gS1Dbe_fFtQ_VaBTwPRr-39" value="Matemática (Licenciatura)" style="whiteSpace=wrap;strokeWidth=2;align=left;" parent="1" vertex="1">
          <mxGeometry x="1259.75" y="680" width="160" height="20" as="geometry" />
        </mxCell>
        <mxCell id="gS1Dbe_fFtQ_VaBTwPRr-56" value="" style="curved=1;startArrow=none;endArrow=block;rounded=0;" parent="1" source="gS1Dbe_fFtQ_VaBTwPRr-38" target="gS1Dbe_fFtQ_VaBTwPRr-39" edge="1">
          <mxGeometry relative="1" as="geometry">
            <Array as="points" />
          </mxGeometry>
        </mxCell>
        <mxCell id="gS1Dbe_fFtQ_VaBTwPRr-33" value="Ciência da Computação" style="whiteSpace=wrap;strokeWidth=2;align=left;" parent="1" vertex="1">
          <mxGeometry x="1259.75" y="720" width="160" height="20" as="geometry" />
        </mxCell>
        <mxCell id="gS1Dbe_fFtQ_VaBTwPRr-55" value="" style="curved=1;startArrow=none;endArrow=block;rounded=0;" parent="1" source="gS1Dbe_fFtQ_VaBTwPRr-38" target="gS1Dbe_fFtQ_VaBTwPRr-33" edge="1">
          <mxGeometry relative="1" as="geometry">
            <Array as="points" />
          </mxGeometry>
        </mxCell>
        <mxCell id="gS1Dbe_fFtQ_VaBTwPRr-38" value="Laboratório de Ciências Matemáticas" style="whiteSpace=wrap;strokeWidth=2;align=right;" parent="1" vertex="1">
          <mxGeometry x="960.75" y="700" width="239" height="20" as="geometry" />
        </mxCell>
        <mxCell id="gS1Dbe_fFtQ_VaBTwPRr-40" value="Laboratório de Ciências Físicas" style="whiteSpace=wrap;strokeWidth=2;align=right;" parent="1" vertex="1">
          <mxGeometry x="1000.75" y="520" width="199" height="20" as="geometry" />
        </mxCell>
        <mxCell id="gS1Dbe_fFtQ_VaBTwPRr-57" value="" style="curved=1;startArrow=none;endArrow=block;rounded=0;" parent="1" source="gS1Dbe_fFtQ_VaBTwPRr-40" target="gS1Dbe_fFtQ_VaBTwPRr-41" edge="1">
          <mxGeometry relative="1" as="geometry">
            <Array as="points" />
          </mxGeometry>
        </mxCell>
        <mxCell id="gS1Dbe_fFtQ_VaBTwPRr-41" value="Física (Licenciatura)" style="whiteSpace=wrap;strokeWidth=2;align=left;" parent="1" vertex="1">
          <mxGeometry x="1259.75" y="520" width="120" height="20" as="geometry" />
        </mxCell>
        <mxCell id="gS1Dbe_fFtQ_VaBTwPRr-43" value="Engenharia Civil" style="whiteSpace=wrap;strokeWidth=2;align=left;" parent="1" vertex="1">
          <mxGeometry x="1259.75" y="560" width="120" height="20" as="geometry" />
        </mxCell>
        <mxCell id="gS1Dbe_fFtQ_VaBTwPRr-58" value="" style="curved=1;startArrow=none;endArrow=block;rounded=0;" parent="1" source="gS1Dbe_fFtQ_VaBTwPRr-42" target="gS1Dbe_fFtQ_VaBTwPRr-43" edge="1">
          <mxGeometry relative="1" as="geometry">
            <Array as="points" />
          </mxGeometry>
        </mxCell>
        <mxCell id="gS1Dbe_fFtQ_VaBTwPRr-42" value="Laboratório de Engenharia Civil" style="whiteSpace=wrap;strokeWidth=2;align=right;" parent="1" vertex="1">
          <mxGeometry x="1000.75" y="560" width="199" height="20" as="geometry" />
        </mxCell>
        <mxCell id="gS1Dbe_fFtQ_VaBTwPRr-45" value="Engenharia Meteorológica" style="whiteSpace=wrap;strokeWidth=2;align=left;" parent="1" vertex="1">
          <mxGeometry x="1259.75" y="600" width="160" height="20" as="geometry" />
        </mxCell>
        <mxCell id="gS1Dbe_fFtQ_VaBTwPRr-59" value="" style="curved=1;startArrow=none;endArrow=block;rounded=0;" parent="1" source="gS1Dbe_fFtQ_VaBTwPRr-44" target="gS1Dbe_fFtQ_VaBTwPRr-45" edge="1">
          <mxGeometry relative="1" as="geometry">
            <Array as="points" />
          </mxGeometry>
        </mxCell>
        <mxCell id="gS1Dbe_fFtQ_VaBTwPRr-44" value="Laboratório de Meteorologia" style="whiteSpace=wrap;strokeWidth=2;align=right;" parent="1" vertex="1">
          <mxGeometry x="1040.75" y="600" width="159" height="20" as="geometry" />
        </mxCell>
        <mxCell id="gS1Dbe_fFtQ_VaBTwPRr-46" value="Laboratório de Materiais Avançados" style="whiteSpace=wrap;strokeWidth=2;align=right;" parent="1" vertex="1">
          <mxGeometry x="960.75" y="840" width="239" height="20" as="geometry" />
        </mxCell>
        <mxCell id="gS1Dbe_fFtQ_VaBTwPRr-60" value="" style="curved=1;startArrow=none;endArrow=block;rounded=0;" parent="1" source="gS1Dbe_fFtQ_VaBTwPRr-46" target="gS1Dbe_fFtQ_VaBTwPRr-47" edge="1">
          <mxGeometry relative="1" as="geometry">
            <Array as="points" />
          </mxGeometry>
        </mxCell>
        <mxCell id="gS1Dbe_fFtQ_VaBTwPRr-47" value="Engenharia Metalúrgica (e Materiais)" style="whiteSpace=wrap;strokeWidth=2;align=left;" parent="1" vertex="1">
          <mxGeometry x="1259.75" y="840" width="240" height="20" as="geometry" />
        </mxCell>
        <mxCell id="gS1Dbe_fFtQ_VaBTwPRr-49" value="Engenharia de Exploração e Produção de Petróleo" style="whiteSpace=wrap;strokeWidth=2;align=left;" parent="1" vertex="1">
          <mxGeometry x="1259.75" y="880" width="280" height="20" as="geometry" />
        </mxCell>
        <mxCell id="gS1Dbe_fFtQ_VaBTwPRr-61" value="" style="curved=1;startArrow=none;endArrow=block;rounded=0;" parent="1" source="gS1Dbe_fFtQ_VaBTwPRr-48" target="gS1Dbe_fFtQ_VaBTwPRr-49" edge="1">
          <mxGeometry relative="1" as="geometry">
            <Array as="points" />
          </mxGeometry>
        </mxCell>
        <mxCell id="gS1Dbe_fFtQ_VaBTwPRr-48" value="Laboratório de Engenharia e Exploração de Petróleo" style="whiteSpace=wrap;strokeWidth=2;align=right;" parent="1" vertex="1">
          <mxGeometry x="880.25" y="880" width="319" height="20" as="geometry" />
        </mxCell>
        <mxCell id="gS1Dbe_fFtQ_VaBTwPRr-50" value="Laboratório de Engenharia de Produção" style="whiteSpace=wrap;strokeWidth=2;align=right;" parent="1" vertex="1">
          <mxGeometry x="960.25" y="640" width="239" height="20" as="geometry" />
        </mxCell>
        <mxCell id="gS1Dbe_fFtQ_VaBTwPRr-62" value="" style="curved=1;startArrow=none;endArrow=block;rounded=0;" parent="1" source="gS1Dbe_fFtQ_VaBTwPRr-50" target="gS1Dbe_fFtQ_VaBTwPRr-51" edge="1">
          <mxGeometry relative="1" as="geometry">
            <Array as="points" />
          </mxGeometry>
        </mxCell>
        <mxCell id="gS1Dbe_fFtQ_VaBTwPRr-51" value="Engenharia de Produção" style="whiteSpace=wrap;strokeWidth=2;align=left;" parent="1" vertex="1">
          <mxGeometry x="1259.75" y="640" width="160" height="20" as="geometry" />
        </mxCell>
      </root>
    </mxGraphModel>
  </diagram>
  <diagram id="quTzyy0SRqZ1IIdMHFwR" name="Labs X Centros">
    <mxGraphModel dx="870" dy="452" grid="1" gridSize="10" guides="1" tooltips="1" connect="1" arrows="1" fold="1" page="1" pageScale="1" pageWidth="800" pageHeight="400" math="0" shadow="0">
      <root>
        <mxCell id="0" />
        <mxCell id="1" parent="0" />
        <mxCell id="gXKxxc8DtMMowIkynnD--2" value="Un.Ens.Pes.Ext." style="rounded=1;whiteSpace=wrap;html=1;fontColor=default;fillColor=#575671;strokeColor=#000000;" vertex="1" parent="1">
          <mxGeometry x="180" y="20" width="100" height="20" as="geometry" />
        </mxCell>
        <mxCell id="gXKxxc8DtMMowIkynnD--3" value="CCT" style="rounded=0;whiteSpace=wrap;html=1;fillColor=#cfe5d5;fontColor=#000000;strokeColor=#000000;" vertex="1" parent="1">
          <mxGeometry x="150" y="80" width="40" height="20" as="geometry" />
        </mxCell>
        <mxCell id="gXKxxc8DtMMowIkynnD--4" value="CCH" style="rounded=0;whiteSpace=wrap;html=1;fillColor=#cfe5d5;fontColor=#000000;strokeColor=#000000;" vertex="1" parent="1">
          <mxGeometry x="370" y="80" width="40" height="20" as="geometry" />
        </mxCell>
        <mxCell id="gXKxxc8DtMMowIkynnD--5" value="CBB" style="rounded=0;whiteSpace=wrap;html=1;fillColor=#cfe5d5;fontColor=#000000;strokeColor=#000000;" vertex="1" parent="1">
          <mxGeometry x="260" y="80" width="40" height="20" as="geometry" />
        </mxCell>
        <mxCell id="gXKxxc8DtMMowIkynnD--6" value="CCTA" style="rounded=0;whiteSpace=wrap;html=1;fillColor=#cfe5d5;fontColor=#000000;strokeColor=#000000;" vertex="1" parent="1">
          <mxGeometry x="40" y="80" width="40" height="20" as="geometry" />
        </mxCell>
        <mxCell id="gXKxxc8DtMMowIkynnD--7" value="LCQui" style="whiteSpace=wrap;html=1;fillColor=#cfe5d5;fontColor=#000000;strokeColor=#000000;align=center;" vertex="1" parent="1">
          <mxGeometry x="190" y="180" width="50" height="20" as="geometry" />
        </mxCell>
        <mxCell id="gXKxxc8DtMMowIkynnD--9" value="LCFis" style="whiteSpace=wrap;html=1;fillColor=#cfe5d5;fontColor=#000000;strokeColor=#000000;align=center;" vertex="1" parent="1">
          <mxGeometry x="190" y="210" width="50" height="20" as="geometry" />
        </mxCell>
        <mxCell id="gXKxxc8DtMMowIkynnD--10" value="LCMat" style="whiteSpace=wrap;html=1;fillColor=#cfe5d5;fontColor=#000000;strokeColor=#000000;align=center;" vertex="1" parent="1">
          <mxGeometry x="190" y="240" width="50" height="20" as="geometry" />
        </mxCell>
        <mxCell id="gXKxxc8DtMMowIkynnD--11" value="LEProd" style="whiteSpace=wrap;html=1;fillColor=#cfe5d5;fontColor=#000000;strokeColor=#000000;align=center;" vertex="1" parent="1">
          <mxGeometry x="190" y="300" width="50" height="20" as="geometry" />
        </mxCell>
        <mxCell id="gXKxxc8DtMMowIkynnD--12" value="LECiv" style="whiteSpace=wrap;html=1;fillColor=#cfe5d5;fontColor=#000000;strokeColor=#000000;align=center;" vertex="1" parent="1">
          <mxGeometry x="190" y="270" width="50" height="20" as="geometry" />
        </mxCell>
        <mxCell id="gXKxxc8DtMMowIkynnD--13" value="LaMAv" style="whiteSpace=wrap;html=1;fillColor=#cfe5d5;fontColor=#000000;strokeColor=#000000;align=center;" vertex="1" parent="1">
          <mxGeometry x="190" y="120" width="50" height="20" as="geometry" />
        </mxCell>
        <mxCell id="gXKxxc8DtMMowIkynnD--14" value="LEnEP" style="whiteSpace=wrap;html=1;fillColor=#cfe5d5;fontColor=#000000;strokeColor=#000000;align=center;" vertex="1" parent="1">
          <mxGeometry x="190" y="330" width="50" height="20" as="geometry" />
        </mxCell>
        <mxCell id="gXKxxc8DtMMowIkynnD--15" value="LaMet" style="whiteSpace=wrap;html=1;fillColor=#cfe5d5;fontColor=#000000;strokeColor=#000000;align=center;" vertex="1" parent="1">
          <mxGeometry x="190" y="150" width="50" height="20" as="geometry" />
        </mxCell>
        <mxCell id="gXKxxc8DtMMowIkynnD--18" value="LCL" style="whiteSpace=wrap;html=1;fillColor=#cfe5d5;fontColor=#000000;strokeColor=#000000;" vertex="1" parent="1">
          <mxGeometry x="410" y="120" width="50" height="20" as="geometry" />
        </mxCell>
        <mxCell id="gXKxxc8DtMMowIkynnD--19" value="LEEL" style="whiteSpace=wrap;html=1;fillColor=#cfe5d5;fontColor=#000000;strokeColor=#000000;" vertex="1" parent="1">
          <mxGeometry x="410" y="180" width="50" height="20" as="geometry" />
        </mxCell>
        <mxCell id="gXKxxc8DtMMowIkynnD--20" value="LESCE" style="whiteSpace=wrap;html=1;fillColor=#cfe5d5;fontColor=#000000;strokeColor=#000000;" vertex="1" parent="1">
          <mxGeometry x="410" y="210" width="50" height="20" as="geometry" />
        </mxCell>
        <mxCell id="gXKxxc8DtMMowIkynnD--21" value="LEEA" style="whiteSpace=wrap;html=1;fillColor=#cfe5d5;fontColor=#000000;strokeColor=#000000;" vertex="1" parent="1">
          <mxGeometry x="410" y="150" width="50" height="20" as="geometry" />
        </mxCell>
        <mxCell id="gXKxxc8DtMMowIkynnD--22" value="LGPP" style="whiteSpace=wrap;html=1;fillColor=#cfe5d5;fontColor=#000000;strokeColor=#000000;" vertex="1" parent="1">
          <mxGeometry x="410" y="240" width="50" height="20" as="geometry" />
        </mxCell>
        <mxCell id="gXKxxc8DtMMowIkynnD--26" value="LBCT" style="whiteSpace=wrap;html=1;fillColor=#cfe5d5;fontColor=#000000;strokeColor=#000000;" vertex="1" parent="1">
          <mxGeometry x="300" y="120" width="50" height="20" as="geometry" />
        </mxCell>
        <mxCell id="gXKxxc8DtMMowIkynnD--27" value="LBR" style="whiteSpace=wrap;html=1;fillColor=#cfe5d5;fontColor=#000000;strokeColor=#000000;" vertex="1" parent="1">
          <mxGeometry x="300" y="150" width="50" height="20" as="geometry" />
        </mxCell>
        <mxCell id="gXKxxc8DtMMowIkynnD--28" value="LBT" style="whiteSpace=wrap;html=1;fillColor=#cfe5d5;fontColor=#000000;strokeColor=#000000;" vertex="1" parent="1">
          <mxGeometry x="300" y="180" width="50" height="20" as="geometry" />
        </mxCell>
        <mxCell id="gXKxxc8DtMMowIkynnD--29" value="LCA" style="whiteSpace=wrap;html=1;fillColor=#cfe5d5;fontColor=#000000;strokeColor=#000000;" vertex="1" parent="1">
          <mxGeometry x="300" y="210" width="50" height="20" as="geometry" />
        </mxCell>
        <mxCell id="gXKxxc8DtMMowIkynnD--30" value="LFBM" style="whiteSpace=wrap;html=1;fillColor=#cfe5d5;fontColor=#000000;strokeColor=#000000;" vertex="1" parent="1">
          <mxGeometry x="300" y="240" width="50" height="20" as="geometry" />
        </mxCell>
        <mxCell id="gXKxxc8DtMMowIkynnD--31" value="LQFPP" style="whiteSpace=wrap;html=1;fillColor=#cfe5d5;fontColor=#000000;strokeColor=#000000;" vertex="1" parent="1">
          <mxGeometry x="300" y="270" width="50" height="20" as="geometry" />
        </mxCell>
        <mxCell id="gXKxxc8DtMMowIkynnD--32" value="LEAG" style="whiteSpace=wrap;html=1;fillColor=#cfe5d5;fontColor=#000000;strokeColor=#000000;" vertex="1" parent="1">
          <mxGeometry x="80" y="120" width="50" height="20" as="geometry" />
        </mxCell>
        <mxCell id="gXKxxc8DtMMowIkynnD--33" value="LEF" style="whiteSpace=wrap;html=1;fillColor=#cfe5d5;fontColor=#000000;strokeColor=#000000;" vertex="1" parent="1">
          <mxGeometry x="80" y="150" width="50" height="20" as="geometry" />
        </mxCell>
        <mxCell id="gXKxxc8DtMMowIkynnD--34" value="LRMGA" style="whiteSpace=wrap;html=1;fillColor=#cfe5d5;fontColor=#000000;strokeColor=#000000;" vertex="1" parent="1">
          <mxGeometry x="80" y="240" width="50" height="20" as="geometry" />
        </mxCell>
        <mxCell id="gXKxxc8DtMMowIkynnD--35" value="LSA" style="whiteSpace=wrap;html=1;fillColor=#cfe5d5;fontColor=#000000;strokeColor=#000000;" vertex="1" parent="1">
          <mxGeometry x="80" y="270" width="50" height="20" as="geometry" />
        </mxCell>
        <mxCell id="gXKxxc8DtMMowIkynnD--36" value="LSOL" style="whiteSpace=wrap;html=1;fillColor=#cfe5d5;fontColor=#000000;strokeColor=#000000;" vertex="1" parent="1">
          <mxGeometry x="80" y="300" width="50" height="20" as="geometry" />
        </mxCell>
        <mxCell id="gXKxxc8DtMMowIkynnD--37" value="LTA" style="whiteSpace=wrap;html=1;fillColor=#cfe5d5;fontColor=#000000;strokeColor=#000000;" vertex="1" parent="1">
          <mxGeometry x="80" y="330" width="50" height="20" as="geometry" />
        </mxCell>
        <mxCell id="gXKxxc8DtMMowIkynnD--38" value="LZO" style="whiteSpace=wrap;html=1;fillColor=#cfe5d5;fontColor=#000000;strokeColor=#000000;" vertex="1" parent="1">
          <mxGeometry x="80" y="360" width="50" height="20" as="geometry" />
        </mxCell>
        <mxCell id="gXKxxc8DtMMowIkynnD--39" value="LMGV" style="whiteSpace=wrap;html=1;fillColor=#cfe5d5;fontColor=#000000;strokeColor=#000000;" vertex="1" parent="1">
          <mxGeometry x="80" y="210" width="50" height="20" as="geometry" />
        </mxCell>
        <mxCell id="gXKxxc8DtMMowIkynnD--40" value="LFIT" style="whiteSpace=wrap;html=1;fillColor=#cfe5d5;fontColor=#000000;strokeColor=#000000;" vertex="1" parent="1">
          <mxGeometry x="80" y="180" width="50" height="20" as="geometry" />
        </mxCell>
        <mxCell id="gXKxxc8DtMMowIkynnD--42" style="edgeStyle=orthogonalEdgeStyle;rounded=0;orthogonalLoop=1;jettySize=auto;html=1;exitX=0.5;exitY=1;exitDx=0;exitDy=0;entryX=0;entryY=0.5;entryDx=0;entryDy=0;startArrow=oval;startFill=1;endArrow=oval;endFill=1;strokeColor=#000000;" edge="1" parent="1" source="gXKxxc8DtMMowIkynnD--6" target="gXKxxc8DtMMowIkynnD--40">
          <mxGeometry relative="1" as="geometry" />
        </mxCell>
        <mxCell id="gXKxxc8DtMMowIkynnD--43" style="edgeStyle=orthogonalEdgeStyle;rounded=0;orthogonalLoop=1;jettySize=auto;html=1;entryX=0;entryY=0.5;entryDx=0;entryDy=0;startArrow=oval;startFill=1;endArrow=oval;endFill=1;strokeColor=#000000;" edge="1" parent="1" source="gXKxxc8DtMMowIkynnD--6" target="gXKxxc8DtMMowIkynnD--39">
          <mxGeometry relative="1" as="geometry" />
        </mxCell>
        <mxCell id="gXKxxc8DtMMowIkynnD--44" style="edgeStyle=orthogonalEdgeStyle;rounded=0;orthogonalLoop=1;jettySize=auto;html=1;exitX=0.5;exitY=1;exitDx=0;exitDy=0;entryX=0;entryY=0.5;entryDx=0;entryDy=0;startArrow=oval;startFill=1;endArrow=oval;endFill=1;strokeColor=#000000;" edge="1" parent="1" source="gXKxxc8DtMMowIkynnD--6" target="gXKxxc8DtMMowIkynnD--38">
          <mxGeometry relative="1" as="geometry" />
        </mxCell>
        <mxCell id="gXKxxc8DtMMowIkynnD--45" style="edgeStyle=orthogonalEdgeStyle;rounded=0;orthogonalLoop=1;jettySize=auto;html=1;entryX=0;entryY=0.5;entryDx=0;entryDy=0;startArrow=oval;startFill=1;endArrow=oval;endFill=1;strokeColor=#000000;" edge="1" parent="1" source="gXKxxc8DtMMowIkynnD--6" target="gXKxxc8DtMMowIkynnD--37">
          <mxGeometry relative="1" as="geometry" />
        </mxCell>
        <mxCell id="gXKxxc8DtMMowIkynnD--46" style="edgeStyle=orthogonalEdgeStyle;rounded=0;orthogonalLoop=1;jettySize=auto;html=1;entryX=0;entryY=0.5;entryDx=0;entryDy=0;startArrow=oval;startFill=1;endArrow=oval;endFill=1;strokeColor=#000000;" edge="1" parent="1" source="gXKxxc8DtMMowIkynnD--6" target="gXKxxc8DtMMowIkynnD--36">
          <mxGeometry relative="1" as="geometry" />
        </mxCell>
        <mxCell id="gXKxxc8DtMMowIkynnD--47" style="edgeStyle=orthogonalEdgeStyle;rounded=0;orthogonalLoop=1;jettySize=auto;html=1;entryX=0;entryY=0.5;entryDx=0;entryDy=0;startArrow=oval;startFill=1;endArrow=oval;endFill=1;strokeColor=#000000;" edge="1" parent="1" source="gXKxxc8DtMMowIkynnD--6" target="gXKxxc8DtMMowIkynnD--35">
          <mxGeometry relative="1" as="geometry" />
        </mxCell>
        <mxCell id="gXKxxc8DtMMowIkynnD--48" style="edgeStyle=orthogonalEdgeStyle;rounded=0;orthogonalLoop=1;jettySize=auto;html=1;entryX=0;entryY=0.5;entryDx=0;entryDy=0;startArrow=oval;startFill=1;endArrow=oval;endFill=1;strokeColor=#000000;" edge="1" parent="1" source="gXKxxc8DtMMowIkynnD--6" target="gXKxxc8DtMMowIkynnD--34">
          <mxGeometry relative="1" as="geometry" />
        </mxCell>
        <mxCell id="gXKxxc8DtMMowIkynnD--49" style="edgeStyle=orthogonalEdgeStyle;rounded=0;orthogonalLoop=1;jettySize=auto;html=1;entryX=0;entryY=0.5;entryDx=0;entryDy=0;startArrow=oval;startFill=1;endArrow=oval;endFill=1;strokeColor=#000000;" edge="1" parent="1" source="gXKxxc8DtMMowIkynnD--6" target="gXKxxc8DtMMowIkynnD--33">
          <mxGeometry relative="1" as="geometry" />
        </mxCell>
        <mxCell id="gXKxxc8DtMMowIkynnD--50" style="edgeStyle=orthogonalEdgeStyle;rounded=0;orthogonalLoop=1;jettySize=auto;html=1;entryX=0;entryY=0.5;entryDx=0;entryDy=0;startArrow=oval;startFill=1;endArrow=oval;endFill=1;strokeColor=#000000;" edge="1" parent="1" source="gXKxxc8DtMMowIkynnD--6" target="gXKxxc8DtMMowIkynnD--32">
          <mxGeometry relative="1" as="geometry" />
        </mxCell>
        <mxCell id="gXKxxc8DtMMowIkynnD--63" style="edgeStyle=orthogonalEdgeStyle;rounded=0;orthogonalLoop=1;jettySize=auto;html=1;entryX=0;entryY=0.5;entryDx=0;entryDy=0;startArrow=oval;startFill=1;endArrow=oval;endFill=1;strokeColor=#000000;" edge="1" parent="1" source="gXKxxc8DtMMowIkynnD--3" target="gXKxxc8DtMMowIkynnD--15">
          <mxGeometry relative="1" as="geometry" />
        </mxCell>
        <mxCell id="gXKxxc8DtMMowIkynnD--64" style="edgeStyle=orthogonalEdgeStyle;rounded=0;orthogonalLoop=1;jettySize=auto;html=1;entryX=0;entryY=0.5;entryDx=0;entryDy=0;startArrow=oval;startFill=1;endArrow=oval;endFill=1;strokeColor=#000000;" edge="1" parent="1" source="gXKxxc8DtMMowIkynnD--3" target="gXKxxc8DtMMowIkynnD--14">
          <mxGeometry relative="1" as="geometry" />
        </mxCell>
        <mxCell id="gXKxxc8DtMMowIkynnD--65" style="edgeStyle=orthogonalEdgeStyle;rounded=0;orthogonalLoop=1;jettySize=auto;html=1;entryX=0;entryY=0.5;entryDx=0;entryDy=0;startArrow=oval;startFill=1;endArrow=oval;endFill=1;strokeColor=#000000;" edge="1" parent="1" source="gXKxxc8DtMMowIkynnD--3" target="gXKxxc8DtMMowIkynnD--13">
          <mxGeometry relative="1" as="geometry" />
        </mxCell>
        <mxCell id="gXKxxc8DtMMowIkynnD--66" style="edgeStyle=orthogonalEdgeStyle;rounded=0;orthogonalLoop=1;jettySize=auto;html=1;entryX=0;entryY=0.5;entryDx=0;entryDy=0;startArrow=oval;startFill=1;endArrow=oval;endFill=1;strokeColor=#000000;" edge="1" parent="1" source="gXKxxc8DtMMowIkynnD--3" target="gXKxxc8DtMMowIkynnD--12">
          <mxGeometry relative="1" as="geometry" />
        </mxCell>
        <mxCell id="gXKxxc8DtMMowIkynnD--67" style="edgeStyle=orthogonalEdgeStyle;rounded=0;orthogonalLoop=1;jettySize=auto;html=1;entryX=0;entryY=0.5;entryDx=0;entryDy=0;startArrow=oval;startFill=1;endArrow=oval;endFill=1;strokeColor=#000000;" edge="1" parent="1" source="gXKxxc8DtMMowIkynnD--3" target="gXKxxc8DtMMowIkynnD--11">
          <mxGeometry relative="1" as="geometry" />
        </mxCell>
        <mxCell id="gXKxxc8DtMMowIkynnD--68" style="edgeStyle=orthogonalEdgeStyle;rounded=0;orthogonalLoop=1;jettySize=auto;html=1;entryX=0;entryY=0.5;entryDx=0;entryDy=0;startArrow=oval;startFill=1;endArrow=oval;endFill=1;strokeColor=#000000;" edge="1" parent="1" source="gXKxxc8DtMMowIkynnD--3" target="gXKxxc8DtMMowIkynnD--10">
          <mxGeometry relative="1" as="geometry" />
        </mxCell>
        <mxCell id="gXKxxc8DtMMowIkynnD--69" style="edgeStyle=orthogonalEdgeStyle;rounded=0;orthogonalLoop=1;jettySize=auto;html=1;entryX=0;entryY=0.5;entryDx=0;entryDy=0;startArrow=oval;startFill=1;endArrow=oval;endFill=1;strokeColor=#000000;" edge="1" parent="1" source="gXKxxc8DtMMowIkynnD--3" target="gXKxxc8DtMMowIkynnD--9">
          <mxGeometry relative="1" as="geometry" />
        </mxCell>
        <mxCell id="gXKxxc8DtMMowIkynnD--70" style="edgeStyle=orthogonalEdgeStyle;rounded=0;orthogonalLoop=1;jettySize=auto;html=1;entryX=0;entryY=0.5;entryDx=0;entryDy=0;startArrow=oval;startFill=1;endArrow=oval;endFill=1;strokeColor=#000000;" edge="1" parent="1" source="gXKxxc8DtMMowIkynnD--3" target="gXKxxc8DtMMowIkynnD--7">
          <mxGeometry relative="1" as="geometry" />
        </mxCell>
        <mxCell id="gXKxxc8DtMMowIkynnD--58" style="edgeStyle=orthogonalEdgeStyle;rounded=0;orthogonalLoop=1;jettySize=auto;html=1;entryX=0;entryY=0.5;entryDx=0;entryDy=0;startArrow=oval;startFill=1;endArrow=oval;endFill=1;strokeColor=#000000;" edge="1" parent="1" source="gXKxxc8DtMMowIkynnD--4" target="gXKxxc8DtMMowIkynnD--22">
          <mxGeometry relative="1" as="geometry" />
        </mxCell>
        <mxCell id="gXKxxc8DtMMowIkynnD--59" style="edgeStyle=orthogonalEdgeStyle;rounded=0;orthogonalLoop=1;jettySize=auto;html=1;entryX=0;entryY=0.5;entryDx=0;entryDy=0;startArrow=oval;startFill=1;endArrow=oval;endFill=1;strokeColor=#000000;" edge="1" parent="1" source="gXKxxc8DtMMowIkynnD--4" target="gXKxxc8DtMMowIkynnD--21">
          <mxGeometry relative="1" as="geometry" />
        </mxCell>
        <mxCell id="gXKxxc8DtMMowIkynnD--60" style="edgeStyle=orthogonalEdgeStyle;rounded=0;orthogonalLoop=1;jettySize=auto;html=1;entryX=0;entryY=0.5;entryDx=0;entryDy=0;startArrow=oval;startFill=1;endArrow=oval;endFill=1;strokeColor=#000000;" edge="1" parent="1" source="gXKxxc8DtMMowIkynnD--4" target="gXKxxc8DtMMowIkynnD--20">
          <mxGeometry relative="1" as="geometry" />
        </mxCell>
        <mxCell id="gXKxxc8DtMMowIkynnD--61" style="edgeStyle=orthogonalEdgeStyle;rounded=0;orthogonalLoop=1;jettySize=auto;html=1;entryX=0;entryY=0.5;entryDx=0;entryDy=0;startArrow=oval;startFill=1;endArrow=oval;endFill=1;strokeColor=#000000;" edge="1" parent="1" source="gXKxxc8DtMMowIkynnD--4" target="gXKxxc8DtMMowIkynnD--19">
          <mxGeometry relative="1" as="geometry" />
        </mxCell>
        <mxCell id="gXKxxc8DtMMowIkynnD--62" style="edgeStyle=orthogonalEdgeStyle;rounded=0;orthogonalLoop=1;jettySize=auto;html=1;entryX=0;entryY=0.5;entryDx=0;entryDy=0;startArrow=oval;startFill=1;endArrow=oval;endFill=1;strokeColor=#000000;" edge="1" parent="1" source="gXKxxc8DtMMowIkynnD--4" target="gXKxxc8DtMMowIkynnD--18">
          <mxGeometry relative="1" as="geometry" />
        </mxCell>
        <mxCell id="gXKxxc8DtMMowIkynnD--51" style="edgeStyle=orthogonalEdgeStyle;rounded=0;orthogonalLoop=1;jettySize=auto;html=1;entryX=0;entryY=0.5;entryDx=0;entryDy=0;startArrow=oval;startFill=1;endArrow=oval;endFill=1;strokeColor=#000000;" edge="1" parent="1" source="gXKxxc8DtMMowIkynnD--5" target="gXKxxc8DtMMowIkynnD--31">
          <mxGeometry relative="1" as="geometry" />
        </mxCell>
        <mxCell id="gXKxxc8DtMMowIkynnD--52" style="edgeStyle=orthogonalEdgeStyle;rounded=0;orthogonalLoop=1;jettySize=auto;html=1;entryX=0;entryY=0.5;entryDx=0;entryDy=0;startArrow=oval;startFill=1;endArrow=oval;endFill=1;strokeColor=#000000;" edge="1" parent="1" source="gXKxxc8DtMMowIkynnD--5" target="gXKxxc8DtMMowIkynnD--30">
          <mxGeometry relative="1" as="geometry" />
        </mxCell>
        <mxCell id="gXKxxc8DtMMowIkynnD--54" style="edgeStyle=orthogonalEdgeStyle;rounded=0;orthogonalLoop=1;jettySize=auto;html=1;entryX=0;entryY=0.5;entryDx=0;entryDy=0;startArrow=oval;startFill=1;endArrow=oval;endFill=1;strokeColor=#000000;" edge="1" parent="1" source="gXKxxc8DtMMowIkynnD--5" target="gXKxxc8DtMMowIkynnD--29">
          <mxGeometry relative="1" as="geometry" />
        </mxCell>
        <mxCell id="gXKxxc8DtMMowIkynnD--55" style="edgeStyle=orthogonalEdgeStyle;rounded=0;orthogonalLoop=1;jettySize=auto;html=1;entryX=0;entryY=0.5;entryDx=0;entryDy=0;startArrow=oval;startFill=1;endArrow=oval;endFill=1;strokeColor=#000000;" edge="1" parent="1" source="gXKxxc8DtMMowIkynnD--5" target="gXKxxc8DtMMowIkynnD--28">
          <mxGeometry relative="1" as="geometry" />
        </mxCell>
        <mxCell id="gXKxxc8DtMMowIkynnD--56" style="edgeStyle=orthogonalEdgeStyle;rounded=0;orthogonalLoop=1;jettySize=auto;html=1;entryX=0;entryY=0.5;entryDx=0;entryDy=0;startArrow=oval;startFill=1;endArrow=oval;endFill=1;strokeColor=#000000;" edge="1" parent="1" source="gXKxxc8DtMMowIkynnD--5" target="gXKxxc8DtMMowIkynnD--27">
          <mxGeometry relative="1" as="geometry" />
        </mxCell>
        <mxCell id="gXKxxc8DtMMowIkynnD--57" style="edgeStyle=orthogonalEdgeStyle;rounded=0;orthogonalLoop=1;jettySize=auto;html=1;entryX=0;entryY=0.5;entryDx=0;entryDy=0;startArrow=oval;startFill=1;endArrow=oval;endFill=1;strokeColor=#000000;" edge="1" parent="1" source="gXKxxc8DtMMowIkynnD--5" target="gXKxxc8DtMMowIkynnD--26">
          <mxGeometry relative="1" as="geometry" />
        </mxCell>
        <mxCell id="gXKxxc8DtMMowIkynnD--75" style="edgeStyle=orthogonalEdgeStyle;rounded=0;orthogonalLoop=1;jettySize=auto;html=1;entryX=0.5;entryY=0;entryDx=0;entryDy=0;startArrow=oval;startFill=1;endArrow=oval;endFill=1;strokeColor=#000000;" edge="1" parent="1" source="gXKxxc8DtMMowIkynnD--2" target="gXKxxc8DtMMowIkynnD--6">
          <mxGeometry relative="1" as="geometry">
            <Array as="points">
              <mxPoint x="230" y="60" />
              <mxPoint x="60" y="60" />
            </Array>
          </mxGeometry>
        </mxCell>
        <mxCell id="gXKxxc8DtMMowIkynnD--76" style="edgeStyle=orthogonalEdgeStyle;rounded=0;orthogonalLoop=1;jettySize=auto;html=1;entryX=0.5;entryY=0;entryDx=0;entryDy=0;startArrow=oval;startFill=1;endArrow=oval;endFill=1;strokeColor=#000000;" edge="1" parent="1" source="gXKxxc8DtMMowIkynnD--2" target="gXKxxc8DtMMowIkynnD--3">
          <mxGeometry relative="1" as="geometry" />
        </mxCell>
        <mxCell id="gXKxxc8DtMMowIkynnD--77" style="edgeStyle=orthogonalEdgeStyle;rounded=0;orthogonalLoop=1;jettySize=auto;html=1;entryX=0.5;entryY=0;entryDx=0;entryDy=0;startArrow=oval;startFill=1;endArrow=oval;endFill=1;strokeColor=#000000;" edge="1" parent="1" source="gXKxxc8DtMMowIkynnD--2" target="gXKxxc8DtMMowIkynnD--5">
          <mxGeometry relative="1" as="geometry" />
        </mxCell>
        <mxCell id="gXKxxc8DtMMowIkynnD--78" style="edgeStyle=orthogonalEdgeStyle;rounded=0;orthogonalLoop=1;jettySize=auto;html=1;entryX=0.5;entryY=0;entryDx=0;entryDy=0;startArrow=oval;startFill=1;endArrow=oval;endFill=1;strokeColor=#000000;" edge="1" parent="1" source="gXKxxc8DtMMowIkynnD--2" target="gXKxxc8DtMMowIkynnD--4">
          <mxGeometry relative="1" as="geometry">
            <Array as="points">
              <mxPoint x="230" y="60" />
              <mxPoint x="390" y="60" />
            </Array>
          </mxGeometry>
        </mxCell>
      </root>
    </mxGraphModel>
  </diagram>
</mxfile>
